<svg width="24" height="24" viewBox="0 0 24 24" fill="none" xmlns="http://www.w3.org/2000/svg">
<g clip-path="url(#clip0_693_42961)">
<path d="M13.5 3.25H3.5C2.80977 3.25 2.25 3.80977 2.25 4.5V19.5C2.25 20.1914 2.80977 20.75 3.5 20.75H12.5703C12.918 21.2109 13.3945 21.6211 13.8789 21.9727C13.7578 21.9883 13.6289 22 13.5 22H3.5C2.11914 22 1 20.8789 1 19.5V4.5C1 3.11914 2.11914 2 3.5 2H13.5C14.8789 2 16 3.11914 16 4.5V9.75781C15.5625 9.88281 15.1445 10.0469 14.75 10.25V4.5C14.75 3.80977 14.1914 3.25 13.5 3.25ZM3.5 7.625C3.5 7.28125 3.77969 7 4.125 7H12.875C13.2188 7 13.5 7.28125 13.5 7.625C13.5 7.96875 13.2188 8.25 12.875 8.25H4.125C3.77969 8.25 3.5 7.96875 3.5 7.625ZM11.625 10.75C11.9688 10.75 12.25 11.0312 12.25 11.375C12.25 11.7188 11.9688 12 11.625 12H4.125C3.77969 12 3.5 11.7188 3.5 11.375C3.5 11.0312 3.77969 10.75 4.125 10.75H11.625ZM9.125 14.5C9.46875 14.5 9.75 14.7812 9.75 15.125C9.75 15.4688 9.46875 15.75 9.125 15.75H4.125C3.77969 15.75 3.5 15.4688 3.5 15.125C3.5 14.7812 3.77969 14.5 4.125 14.5H9.125ZM17.875 13.25C18.3945 13.25 18.8125 13.668 18.8125 14.1875C18.8125 14.707 18.3945 15.125 17.875 15.125C17.3555 15.125 16.9375 14.707 16.9375 14.1875C16.9375 13.668 17.3555 13.25 17.875 13.25ZM17.2148 18.25V17C16.9063 16.9648 16.625 16.7188 16.625 16.375C16.625 16.0312 16.9062 15.75 17.25 15.75H17.8398C18.2188 15.75 18.4648 16.0312 18.4648 16.375L18.5 18.25C18.8438 18.25 19.125 18.5312 19.125 18.875C19.125 19.2188 18.8438 19.5 18.5 19.5H17.25C16.9062 19.5 16.625 19.2188 16.625 18.875C16.625 18.5312 16.9063 18.25 17.2148 18.25ZM17.875 22C14.7695 22 12.25 19.4805 12.25 16.375C12.25 13.2695 14.7695 10.75 17.875 10.75C20.9805 10.75 23.5 13.2695 23.5 16.375C23.5 19.4805 20.9805 22 17.875 22ZM22.25 16.375C22.25 13.957 20.293 12 17.875 12C15.457 12 13.5 13.957 13.5 16.375C13.5 18.793 15.457 20.75 17.875 20.75C20.293 20.75 22.25 18.793 22.25 16.375Z" fill="#747474"/>
</g>
<defs>
<clipPath id="clip0_693_42961">
<rect width="22.5" height="20" fill="white" transform="translate(1 2)"/>
</clipPath>
</defs>
</svg>
