<svg width="24" height="24" viewBox="0 0 24 24" fill="none" xmlns="http://www.w3.org/2000/svg">
<g clip-path="url(#clip0_693_42989)">
<path d="M12 2C6.47656 2 2 6.47656 2 12C2 17.5234 6.47656 22 12 22C17.5234 22 22 17.5234 22 12C22 6.47656 17.5234 2 12 2ZM12 20.75C7.17578 20.75 3.25 16.8242 3.25 12C3.25 7.17578 7.17578 3.25 12 3.25C16.8242 3.25 20.75 7.17578 20.75 12C20.75 16.8242 16.8242 20.75 12 20.75ZM12 13.875C12.3455 13.875 12.625 13.5955 12.625 13.25V7C12.625 6.65453 12.3455 6.375 12 6.375C11.6545 6.375 11.375 6.65625 11.375 7V13.25C11.375 13.5938 11.6562 13.875 12 13.875ZM12 15.4375C11.4824 15.4375 11.0625 15.8574 11.0625 16.375C11.0625 16.8926 11.4824 17.3125 12 17.3125C12.5176 17.3125 12.9375 16.8926 12.9375 16.375C12.9375 15.8574 12.5195 15.4375 12 15.4375Z" fill="#073356"/>
</g>
<defs>
<clipPath id="clip0_693_42989">
<rect width="20" height="20" fill="white" transform="translate(2 2)"/>
</clipPath>
</defs>
</svg>
