<svg width="24" height="24" viewBox="0 0 24 24" fill="none" xmlns="http://www.w3.org/2000/svg">
<g clip-path="url(#clip0_918_37605)">
<path d="M19.2695 6.89454L15.1094 2.73438C14.6367 2.26336 14.0039 2 13.3398 2L7.5 2C6.11914 2 5 3.11914 5 4.5L5.00025 19.5C5.00025 20.8809 6.11939 22 7.50025 22H17.5C18.8809 22 20 20.8809 20 19.5V8.66016C20 7.9961 19.7383 7.36329 19.2695 6.89454ZM13.75 3.33125C13.9249 3.39243 14.0885 3.48149 14.2234 3.61637L18.3836 7.77653C18.5195 7.91016 18.6094 8.07422 18.668 8.25H14.375C14.0312 8.25 13.75 7.96875 13.75 7.625V3.33125ZM18.75 19.5C18.75 20.1891 18.1891 20.75 17.5 20.75H7.5C6.81094 20.75 6.25 20.1891 6.25 19.5V4.5C6.25 3.81094 6.81094 3.25 7.5 3.25H12.5V7.625C12.5 8.66016 13.3398 9.5 14.375 9.5H18.75V19.5ZM8.75 12.625C8.75 12.9688 9.03125 13.25 9.375 13.25H15.625C15.9688 13.25 16.25 12.9688 16.25 12.625C16.25 12.2813 15.9688 12 15.625 12H9.375C9.03125 12 8.75 12.2813 8.75 12.625ZM15.625 14.5H9.375C9.03125 14.5 8.75 14.7813 8.75 15.125C8.75 15.4688 9.03125 15.75 9.375 15.75H15.625C15.9702 15.75 16.25 15.4702 16.25 15.125C16.25 14.7798 15.9688 14.5 15.625 14.5ZM15.625 17H9.375C9.03125 17 8.75 17.2813 8.75 17.625C8.75 17.9688 9.03125 18.25 9.375 18.25H15.625C15.9702 18.25 16.25 17.9702 16.25 17.625C16.25 17.2798 15.9688 17 15.625 17Z" fill="#747474"/>
</g>
<defs>
<clipPath id="clip0_918_37605">
<rect width="15" height="20" fill="white" transform="translate(5 2)"/>
</clipPath>
</defs>
</svg>
