<svg width="24" height="24" viewBox="0 0 24 24" fill="none" xmlns="http://www.w3.org/2000/svg">
<g clip-path="url(#clip0_693_42981)">
<path d="M6.75 16.375C6.75 16.0312 7.03125 15.75 7.375 15.75H12.375C12.7188 15.75 13 16.0312 13 16.375C13 16.7188 12.7188 17 12.375 17H7.375C7.03125 17 6.75 16.7188 6.75 16.375ZM16.125 12C16.4688 12 16.75 12.2812 16.75 12.625C16.75 12.9688 16.4688 13.25 16.125 13.25H7.375C7.03125 13.25 6.75 12.9688 6.75 12.625C6.75 12.2812 7.03125 12 7.375 12H16.125ZM7.375 2C7.71875 2 8 2.27984 8 2.625V4.5H15.5V2.625C15.5 2.27984 15.7812 2 16.125 2C16.4688 2 16.75 2.27984 16.75 2.625V4.5H18C19.3789 4.5 20.5 5.61914 20.5 7V19.5C20.5 20.8789 19.3789 22 18 22H5.5C4.11914 22 3 20.8789 3 19.5V7C3 5.61914 4.11914 4.5 5.5 4.5H6.75V2.625C6.75 2.27984 7.03125 2 7.375 2ZM19.25 9.5H4.25V19.5C4.25 20.1914 4.80977 20.75 5.5 20.75H18C18.6914 20.75 19.25 20.1914 19.25 19.5V9.5ZM18 5.75H5.5C4.80977 5.75 4.25 6.30859 4.25 7V8.25H19.25V7C19.25 6.30859 18.6914 5.75 18 5.75Z" fill="#073356"/>
</g>
<defs>
<clipPath id="clip0_693_42981">
<rect width="17.5" height="20" fill="white" transform="translate(3 2)"/>
</clipPath>
</defs>
</svg>
