<svg width="24" height="24" viewBox="0 0 24 24" fill="none" xmlns="http://www.w3.org/2000/svg">
<path d="M12.5 3C12.5 2.72386 12.2761 2.5 12 2.5C11.7239 2.5 11.5 2.72386 11.5 3L12.5 3ZM11.5 14C11.5 14.2761 11.7239 14.5 12 14.5C12.2761 14.5 12.5 14.2761 12.5 14L11.5 14ZM16.3536 12.3536C16.5488 12.1583 16.5488 11.8417 16.3536 11.6464C16.1583 11.4512 15.8417 11.4512 15.6464 11.6464L16.3536 12.3536ZM12.7071 15.2929L12.3536 14.9393L12.3536 14.9393L12.7071 15.2929ZM11.2929 15.2929L11.6464 14.9393L11.6464 14.9393L11.2929 15.2929ZM8.35355 11.6464C8.15829 11.4512 7.84171 11.4512 7.64645 11.6464C7.45118 11.8417 7.45118 12.1583 7.64645 12.3536L8.35355 11.6464ZM3.5 16C3.5 15.7239 3.27614 15.5 3 15.5C2.72386 15.5 2.5 15.7239 2.5 16H3.5ZM21.5 16C21.5 15.7239 21.2761 15.5 21 15.5C20.7239 15.5 20.5 15.7239 20.5 16H21.5ZM19.362 20.673L19.135 20.2275L19.135 20.2275L19.362 20.673ZM20.673 19.362L21.1185 19.589L21.1185 19.589L20.673 19.362ZM3.32698 19.362L2.88148 19.589L3.32698 19.362ZM4.63803 20.673L4.41103 21.1185L4.41103 21.1185L4.63803 20.673ZM11.5 3L11.5 14L12.5 14L12.5 3L11.5 3ZM15.6464 11.6464L12.3536 14.9393L13.0607 15.6464L16.3536 12.3536L15.6464 11.6464ZM11.6464 14.9393L8.35355 11.6464L7.64645 12.3536L10.9393 15.6464L11.6464 14.9393ZM12.3536 14.9393C12.1583 15.1346 11.8417 15.1346 11.6464 14.9393L10.9393 15.6464C11.5251 16.2322 12.4749 16.2322 13.0607 15.6464L12.3536 14.9393ZM2.5 16V16.2H3.5V16H2.5ZM7.8 21.5H16.2V20.5H7.8V21.5ZM21.5 16.2V16H20.5V16.2H21.5ZM16.2 21.5C17.0318 21.5 17.6858 21.5004 18.2111 21.4575C18.7423 21.4141 19.1859 21.3239 19.589 21.1185L19.135 20.2275C18.8963 20.3491 18.599 20.4224 18.1297 20.4608C17.6545 20.4996 17.0483 20.5 16.2 20.5V21.5ZM20.5 16.2C20.5 17.0483 20.4996 17.6545 20.4608 18.1297C20.4224 18.599 20.3491 18.8963 20.2275 19.135L21.1185 19.589C21.3239 19.1859 21.4141 18.7423 21.4575 18.2111C21.5004 17.6858 21.5 17.0318 21.5 16.2H20.5ZM19.589 21.1185C20.2475 20.783 20.783 20.2475 21.1185 19.589L20.2275 19.135C19.9878 19.6054 19.6054 19.9878 19.135 20.2275L19.589 21.1185ZM2.5 16.2C2.5 17.0318 2.49961 17.6858 2.54253 18.2111C2.58593 18.7423 2.67609 19.1859 2.88148 19.589L3.77248 19.135C3.65089 18.8963 3.57756 18.599 3.53921 18.1297C3.50039 17.6545 3.5 17.0483 3.5 16.2H2.5ZM7.8 20.5C6.95167 20.5 6.34549 20.4996 5.87032 20.4608C5.40099 20.4224 5.10366 20.3491 4.86502 20.2275L4.41103 21.1185C4.81413 21.3239 5.25771 21.4141 5.78889 21.4575C6.31423 21.5004 6.96817 21.5 7.8 21.5V20.5ZM2.88148 19.589C3.21703 20.2475 3.75247 20.783 4.41103 21.1185L4.86502 20.2275C4.39462 19.9878 4.01217 19.6054 3.77248 19.135L2.88148 19.589Z" fill="#073356"/>
</svg>
