<svg width="24" height="24" viewBox="0 0 24 24" fill="none" xmlns="http://www.w3.org/2000/svg">
<g clip-path="url(#clip0_693_42969)">
<path d="M14.6914 8.16406C14.2469 7.48516 13.1332 7.48789 12.6902 8.16162L9.83202 12.4883L9.1914 11.6055C8.74608 10.9492 7.69921 10.9805 7.24999 11.6055L4.72968 15.0883C4.46417 15.4557 4.42694 15.9367 4.63018 16.3383C4.83319 16.7461 5.24413 17 5.70116 17H18.2988C18.7445 17 19.1504 16.7546 19.359 16.3602C19.5665 15.9695 19.5439 15.4973 19.2998 15.1273L14.6914 8.16406ZM5.74218 15.75L8.17929 12.3367L9.34765 13.9516C9.46874 14.1172 9.67186 14.2344 9.86718 14.2109C10.0723 14.2061 10.2625 14.1023 10.3758 13.9302L13.6504 8.85594L18.2109 15.75H5.74218ZM19.4648 3.25H4.46483C3.11913 3.25 1.99963 4.36914 1.99963 5.75V18.25C1.99963 19.6309 3.11877 20.75 4.46448 20.75H19.4645C20.8453 20.75 21.9645 19.6309 21.9645 18.25V5.75C21.9648 4.36914 20.8789 3.25 19.4648 3.25ZM20.75 18.25C20.75 18.9391 20.1891 19.5 19.5 19.5H4.49999C3.81093 19.5 3.24999 18.9391 3.24999 18.25V5.75C3.24999 5.06094 3.81093 4.5 4.49999 4.5H19.5C20.1891 4.5 20.75 5.06094 20.75 5.75V18.25ZM7.62499 9.5C8.66015 9.5 9.49999 8.66016 9.49999 7.625C9.49999 6.58984 8.66015 5.75 7.62499 5.75C6.58983 5.75 5.74999 6.58984 5.74999 7.625C5.74999 8.66016 6.58983 9.5 7.62499 9.5ZM7.62499 7C7.9696 7 8.21483 7.28039 8.21483 7.625C8.21483 7.96961 7.96874 8.25 7.62499 8.25C7.28124 8.25 6.99999 7.96875 6.99999 7.625C6.99999 7.28125 7.28124 7 7.62499 7Z" fill="#073356"/>
</g>
<defs>
<clipPath id="clip0_693_42969">
<rect width="20" height="20" fill="white" transform="translate(2 2)"/>
</clipPath>
</defs>
</svg>
