<svg width="24" height="24" viewBox="0 0 24 24" fill="none" xmlns="http://www.w3.org/2000/svg">
<g clip-path="url(#clip0_693_42985)">
<path d="M15.5 4.5H14.875V3.875C14.875 2.83984 14.0352 2 13 2H10.5C9.46484 2 8.625 2.83984 8.625 3.875V4.5H8C5.23633 4.5 3 6.73437 3 9.5V19.5C3 20.882 4.11797 22 5.5 22H18C19.382 22 20.5 20.882 20.5 19.5V9.5C20.5 6.73437 18.2656 4.5 15.5 4.5ZM9.875 3.875C9.875 3.52812 10.1562 3.25 10.5 3.25H13C13.3418 3.25 13.625 3.52832 13.625 3.875V4.5H9.875V3.875ZM16.125 20.75H7.375V17H16.125V20.75ZM16.125 15.75H7.375V14.5C7.375 13.8117 7.93672 13.25 8.625 13.25H14.875C15.5633 13.25 16.125 13.8117 16.125 14.5V15.75ZM19.25 19.5C19.25 20.1883 18.6883 20.75 18 20.75H17.375V14.5C17.375 13.123 16.252 12 14.875 12H8.625C7.24805 12 6.125 13.123 6.125 14.5V20.75H5.5C4.81172 20.75 4.25 20.1883 4.25 19.5V9.5C4.25 7.42969 5.92969 5.75 8 5.75H15.5C17.5703 5.75 19.25 7.42969 19.25 9.5V19.5ZM14.875 8.25H8.58984C8.28125 8.25 8 8.53125 8 8.83984C8 9.21875 8.28125 9.5 8.58984 9.5H14.8398C15.2188 9.5 15.5 9.21875 15.5 8.875C15.5 8.53125 15.2188 8.25 14.875 8.25Z" fill="#073356"/>
</g>
<defs>
<clipPath id="clip0_693_42985">
<rect width="17.5" height="20" fill="white" transform="translate(3 2)"/>
</clipPath>
</defs>
</svg>
