<svg width="24" height="24" viewBox="0 0 24 24" fill="none" xmlns="http://www.w3.org/2000/svg">
<g clip-path="url(#clip0_693_42973)">
<path d="M19.1875 5.75C19.1875 6.26953 18.7695 6.6875 18.25 6.6875C17.7305 6.6875 17.3125 6.26953 17.3125 5.75C17.3125 5.23242 17.7305 4.8125 18.25 4.8125C18.7695 4.8125 19.1875 5.23242 19.1875 5.75ZM18.25 12H15.125C14.0898 12 13.25 12.8398 13.25 13.875C13.25 14.9102 14.0898 15.75 15.125 15.75H18.875C20.6016 15.75 22 17.1484 22 18.875C22 20.6016 20.6016 22 18.875 22H7.45313C7.75391 21.6562 8.11328 21.2305 8.44922 20.75H18.875C19.9102 20.75 20.75 19.9102 20.75 18.875C20.75 17.8398 19.9102 17 18.875 17H15.125C13.3984 17 11.9648 15.6016 11.9648 13.875C11.9648 12.1484 13.3984 10.75 15.125 10.75H17.1211C16.0156 9.43359 14.5 7.33984 14.5 5.75C14.5 3.67891 16.1445 2 18.25 2C20.3203 2 22 3.67891 22 5.75C22 7.48047 20.2031 9.80859 19.0977 11.0781C18.6055 11.6445 18.25 12 18.25 12ZM20.2969 7.22266C20.6133 6.58984 20.75 6.08984 20.75 5.75C20.75 4.36914 19.6289 3.25 18.25 3.25C16.8711 3.25 15.75 4.36914 15.75 5.75C15.75 6.08984 15.8867 6.58984 16.2031 7.22266C16.5117 7.83594 16.9297 8.47266 17.375 9.0625C17.6758 9.46484 17.9805 9.83594 18.25 10.1484C18.5195 9.83594 18.8242 9.46484 19.125 9.0625C19.5703 8.47266 19.9883 7.83594 20.2969 7.22266ZM4.77734 15.75C4.77734 15.2305 5.23203 14.8125 5.71484 14.8125C6.26953 14.8125 6.65234 15.2305 6.65234 15.75C6.65234 16.2695 6.26953 16.6875 5.71484 16.6875C5.23203 16.6875 4.77734 16.2695 4.77734 15.75ZM6.59766 21.0781C6.51953 21.168 6.44531 21.25 6.37891 21.3281H6.375C6.00391 21.7461 5.75 22 5.75 22C5.75 22 5.39453 21.6445 4.90234 21.0781C3.79609 19.8086 2 17.4805 2 15.75C2 13.6445 3.67891 12 5.75 12C7.82031 12 9.5 13.6445 9.5 15.75C9.5 17.3437 7.97266 19.4492 6.86719 20.7656C6.77344 20.875 6.68359 20.9805 6.59766 21.0781ZM7.79687 17.2227C8.11328 16.5898 8.21484 16.0898 8.21484 15.75C8.21484 14.3711 7.12891 13.25 5.71484 13.25C4.36914 13.25 3.21484 14.3711 3.21484 15.75C3.21484 16.0898 3.38789 16.5898 3.70391 17.2227C4.01016 17.8359 4.43164 18.4727 4.875 19.0625C5.17734 19.4648 5.48086 19.8359 5.71484 20.1484C6.01953 19.8359 6.32422 19.4648 6.625 19.0625C7.06641 18.4727 7.48828 17.8359 7.79687 17.2227Z" fill="#073356"/>
</g>
<defs>
<clipPath id="clip0_693_42973">
<rect width="20" height="20" fill="white" transform="translate(2 2)"/>
</clipPath>
</defs>
</svg>
