<svg width="24" height="24" viewBox="0 0 24 24" fill="none" xmlns="http://www.w3.org/2000/svg">
<g clip-path="url(#clip0_609_19237)">
<path d="M11.75 9.1875C12.2676 9.1875 12.6875 8.76797 12.6875 8.25C12.6875 7.73242 12.2676 7.3125 11.75 7.3125C11.2324 7.3125 10.8125 7.73047 10.8125 8.25C10.8125 8.76953 11.2305 9.1875 11.75 9.1875ZM18 3.25H5.5C4.11914 3.25 3 4.36914 3 5.75V18.25C3 19.6309 4.11914 20.75 5.5 20.75H18C19.3809 20.75 20.5 19.6309 20.5 18.25V5.75C20.5 4.36914 19.3789 3.25 18 3.25ZM19.25 18.25C19.25 18.9391 18.6891 19.5 18 19.5H5.5C4.81094 19.5 4.25 18.9391 4.25 18.25V5.75C4.25 5.06094 4.81094 4.5 5.5 4.5H18C18.6891 4.5 19.25 5.06094 19.25 5.75V18.25ZM13.625 15.75H12.375V11.375C12.375 11.0312 12.0938 10.75 11.75 10.75H10.5C10.1562 10.75 9.875 11.0312 9.875 11.375C9.875 11.7188 10.1562 12 10.5 12H11.125V15.75H9.875C9.53125 15.75 9.25 16.0312 9.25 16.375C9.25 16.7188 9.53125 17 9.875 17H13.625C13.9702 17 14.25 16.7202 14.25 16.375C14.25 16.0312 13.9688 15.75 13.625 15.75Z" fill="#4D4D4D"/>
</g>
<defs>
<clipPath id="clip0_609_19237">
<rect width="17.5" height="20" fill="white" transform="translate(3 2)"/>
</clipPath>
</defs>
</svg>
