<svg width="16" height="16" viewBox="0 0 16 16" fill="none" xmlns="http://www.w3.org/2000/svg">
<g clip-path="url(#clip0_693_43052)">
<path d="M4.5 10.9166C4.5 10.6874 4.6875 10.4999 4.91667 10.4999H8.25C8.47917 10.4999 8.66667 10.6874 8.66667 10.9166C8.66667 11.1458 8.47917 11.3333 8.25 11.3333H4.91667C4.6875 11.3333 4.5 11.1458 4.5 10.9166ZM10.75 7.99992C10.9792 7.99992 11.1667 8.18742 11.1667 8.41659C11.1667 8.64575 10.9792 8.83325 10.75 8.83325H4.91667C4.6875 8.83325 4.5 8.64575 4.5 8.41659C4.5 8.18742 4.6875 7.99992 4.91667 7.99992H10.75ZM4.91667 1.33325C5.14583 1.33325 5.33333 1.51981 5.33333 1.74992V2.99992H10.3333V1.74992C10.3333 1.51981 10.5208 1.33325 10.75 1.33325C10.9792 1.33325 11.1667 1.51981 11.1667 1.74992V2.99992H12C12.9193 2.99992 13.6667 3.74601 13.6667 4.66659V12.9999C13.6667 13.9192 12.9193 14.6666 12 14.6666H3.66667C2.74609 14.6666 2 13.9192 2 12.9999V4.66659C2 3.74601 2.74609 2.99992 3.66667 2.99992H4.5V1.74992C4.5 1.51981 4.6875 1.33325 4.91667 1.33325ZM12.8333 6.33325H2.83333V12.9999C2.83333 13.4609 3.20651 13.8333 3.66667 13.8333H12C12.4609 13.8333 12.8333 13.4609 12.8333 12.9999V6.33325ZM12 3.83325H3.66667C3.20651 3.83325 2.83333 4.20565 2.83333 4.66659V5.49992H12.8333V4.66659C12.8333 4.20565 12.4609 3.83325 12 3.83325Z" fill="#747474"/>
</g>
<defs>
<clipPath id="clip0_693_43052">
<rect width="11.6667" height="13.3333" fill="white" transform="translate(2 1.33325)"/>
</clipPath>
</defs>
</svg>
