<svg width="16" height="16" viewBox="0 0 16 16" fill="none" xmlns="http://www.w3.org/2000/svg">
<path d="M6.66663 13.9999L8.48153 6.85642M8.48153 6.85642L9.33944 3.51151C9.37295 3.38087 9.50873 3.30536 9.64271 3.34287L10.8563 3.68259C11.6878 3.91534 12.4026 4.46064 12.8436 5.19852C13.2845 5.9364 13.9993 6.4817 14.8308 6.71446L15.207 6.81976C15.2963 6.84477 15.3506 6.93564 15.3283 7.02274L14.5183 10.1809C14.4806 10.3276 14.3282 10.4124 14.1777 10.3702L12.994 10.0389C12.1625 9.80612 11.4476 9.26082 11.0067 8.52294C10.5658 7.78506 9.85094 7.23976 9.01944 7.007L8.48153 6.85642ZM9.33329 13.9999L7.51839 6.85642M7.51839 6.85642L6.66048 3.51151C6.62697 3.38087 6.49119 3.30536 6.3572 3.34287L5.14362 3.68259C4.31212 3.91534 3.59729 4.46064 3.15637 5.19852C2.71545 5.9364 2.00061 6.4817 1.16911 6.71446L0.792933 6.81976C0.70361 6.84477 0.649308 6.93564 0.671646 7.02274L1.48166 10.1809C1.51928 10.3276 1.67175 10.4124 1.8222 10.3702L3.00597 10.0389C3.83747 9.80612 4.55231 9.26082 4.99323 8.52294C5.43414 7.78506 6.14898 7.23976 6.98048 7.007L7.51839 6.85642Z" stroke="#747474" stroke-linecap="round"/>
</svg>
