<svg width="16" height="16" viewBox="0 0 16 16" fill="none" xmlns="http://www.w3.org/2000/svg">
<g clip-path="url(#clip0_693_43041)">
<path d="M12.7917 3.83325C12.7917 4.17961 12.5131 4.45825 12.1667 4.45825C11.8204 4.45825 11.5417 4.17961 11.5417 3.83325C11.5417 3.4882 11.8204 3.20825 12.1667 3.20825C12.5131 3.20825 12.7917 3.4882 12.7917 3.83325ZM12.1667 7.99992H10.0834C9.39327 7.99992 8.83337 8.55981 8.83337 9.24992C8.83337 9.94002 9.39327 10.4999 10.0834 10.4999H12.5834C13.7344 10.4999 14.6667 11.4322 14.6667 12.5833C14.6667 13.7343 13.7344 14.6666 12.5834 14.6666H4.96879C5.16931 14.4374 5.4089 14.1536 5.63285 13.8333H12.5834C13.2735 13.8333 13.8334 13.2734 13.8334 12.5833C13.8334 11.8931 13.2735 11.3333 12.5834 11.3333H10.0834C8.93233 11.3333 7.9766 10.401 7.9766 9.24992C7.9766 8.09888 8.93233 7.16659 10.0834 7.16659H11.4141C10.6771 6.28898 9.66671 4.89315 9.66671 3.83325C9.66671 2.45252 10.7631 1.33325 12.1667 1.33325C13.5469 1.33325 14.6667 2.45252 14.6667 3.83325C14.6667 4.9869 13.4688 6.53898 12.7318 7.38534C12.4037 7.76294 12.1667 7.99992 12.1667 7.99992ZM13.5313 4.81502C13.7422 4.39315 13.8334 4.05981 13.8334 3.83325C13.8334 2.91268 13.086 2.16659 12.1667 2.16659C11.2474 2.16659 10.5 2.91268 10.5 3.83325C10.5 4.05981 10.5912 4.39315 10.8021 4.81502C11.0079 5.22388 11.2865 5.64836 11.5834 6.04159C11.7839 6.30981 11.987 6.55721 12.1667 6.76554C12.3464 6.55721 12.5495 6.30981 12.75 6.04159C13.0469 5.64836 13.3256 5.22388 13.5313 4.81502ZM3.18494 10.4999C3.18494 10.1536 3.48806 9.87492 3.80994 9.87492C4.17973 9.87492 4.43494 10.1536 4.43494 10.4999C4.43494 10.8463 4.17973 11.1249 3.80994 11.1249C3.48806 11.1249 3.18494 10.8463 3.18494 10.4999ZM4.39848 14.052C4.34639 14.1119 4.29692 14.1666 4.25264 14.2187H4.25004C4.00264 14.4973 3.83337 14.6666 3.83337 14.6666C3.83337 14.6666 3.5964 14.4296 3.26827 14.052C2.53077 13.2056 1.33337 11.6536 1.33337 10.4999C1.33337 9.09627 2.45264 7.99992 3.83337 7.99992C5.21358 7.99992 6.33337 9.09627 6.33337 10.4999C6.33337 11.5624 5.31514 12.9661 4.57817 13.8437C4.51567 13.9166 4.45577 13.9869 4.39848 14.052ZM5.19796 11.4817C5.40889 11.0598 5.4766 10.7265 5.4766 10.4999C5.4766 9.58065 4.75264 8.83325 3.80994 8.83325C2.9128 8.83325 2.14327 9.58065 2.14327 10.4999C2.14327 10.7265 2.25863 11.0598 2.46931 11.4817C2.67348 11.8905 2.95447 12.315 3.25004 12.7083C3.4516 12.9765 3.65395 13.2239 3.80994 13.4322C4.01306 13.2239 4.21619 12.9765 4.41671 12.7083C4.71098 12.315 4.99223 11.8905 5.19796 11.4817Z" fill="#142838"/>
</g>
<defs>
<clipPath id="clip0_693_43041">
<rect width="13.3333" height="13.3333" fill="white" transform="translate(1.33337 1.33325)"/>
</clipPath>
</defs>
</svg>
