<svg width="17" height="17" viewBox="0 0 17 17" fill="none" xmlns="http://www.w3.org/2000/svg">
<path d="M7.99996 8.99993L9.99996 6.99993M15.3333 8.99993C15.3333 13.05 12.05 16.3333 7.99996 16.3333C3.94987 16.3333 0.666626 13.05 0.666626 8.99993C0.666626 4.94984 3.94987 1.66659 7.99996 1.66659M12.6666 8.99993C12.6666 11.5773 10.5773 13.6666 7.99996 13.6666C5.42263 13.6666 3.33329 11.5773 3.33329 8.99993C3.33329 6.4226 5.42263 4.33326 7.99996 4.33326M9.99996 6.66659V3.74631C9.99996 3.65657 10.0361 3.57063 10.1003 3.50791L12.1003 1.55337C12.3114 1.3471 12.6666 1.49664 12.6666 1.79176V3.99993C12.6666 4.18402 12.8159 4.33326 13 4.33326H15.2081C15.5032 4.33326 15.6528 4.6885 15.4465 4.89957L13.492 6.89957C13.4293 6.96375 13.3433 6.99993 13.2536 6.99993H10.3333C10.1492 6.99993 9.99996 6.85069 9.99996 6.66659Z" stroke="#747474" stroke-linecap="round"/>
</svg>
