<svg width="16" height="16" viewBox="0 0 16 16" fill="none" xmlns="http://www.w3.org/2000/svg">
<path d="M8.20002 8.14658C8.55574 7.83867 8.84105 7.45784 9.0366 7.02993C9.23215 6.60203 9.33336 6.13706 9.33335 5.66658C9.33335 4.78253 8.98216 3.93468 8.35704 3.30956C7.73192 2.68444 6.88408 2.33325 6.00002 2.33325C5.11597 2.33325 4.26812 2.68444 3.643 3.30956C3.01788 3.93468 2.66669 4.78253 2.66669 5.66658C2.66668 6.13706 2.76789 6.60203 2.96344 7.02993C3.15899 7.45784 3.4443 7.83867 3.80002 8.14658C2.86678 8.56917 2.075 9.2516 1.51934 10.1123C0.963684 10.973 0.667668 11.9755 0.666687 12.9999C0.666687 13.1767 0.736925 13.3463 0.861949 13.4713C0.986973 13.5963 1.15654 13.6666 1.33335 13.6666C1.51016 13.6666 1.67973 13.5963 1.80476 13.4713C1.92978 13.3463 2.00002 13.1767 2.00002 12.9999C2.00002 11.9391 2.42145 10.9216 3.17159 10.1715C3.92174 9.42135 4.93915 8.99992 6.00002 8.99992C7.06089 8.99992 8.0783 9.42135 8.82845 10.1715C9.57859 10.9216 10 11.9391 10 12.9999C10 13.1767 10.0703 13.3463 10.1953 13.4713C10.3203 13.5963 10.4899 13.6666 10.6667 13.6666C10.8435 13.6666 11.0131 13.5963 11.1381 13.4713C11.2631 13.3463 11.3334 13.1767 11.3334 12.9999C11.3324 11.9755 11.0364 10.973 10.4807 10.1123C9.92504 9.2516 9.13326 8.56917 8.20002 8.14658ZM6.00002 7.66658C5.60446 7.66658 5.21778 7.54929 4.88888 7.32952C4.55998 7.10976 4.30364 6.7974 4.15226 6.43195C4.00089 6.0665 3.96128 5.66437 4.03845 5.2764C4.11562 4.88844 4.3061 4.53208 4.58581 4.25237C4.86551 3.97267 5.22188 3.78219 5.60984 3.70501C5.9978 3.62784 6.39994 3.66745 6.76539 3.81883C7.13084 3.9702 7.4432 4.22655 7.66296 4.55544C7.88272 4.88434 8.00002 5.27102 8.00002 5.66658C8.00002 6.19702 7.78931 6.70573 7.41423 7.0808C7.03916 7.45587 6.53045 7.66658 6.00002 7.66658ZM12.4934 7.87992C12.92 7.39947 13.1987 6.80595 13.2959 6.17081C13.3931 5.53567 13.3046 4.88597 13.0412 4.29992C12.7778 3.71387 12.3505 3.21645 11.811 2.86753C11.2715 2.51862 10.6426 2.33308 10 2.33325C9.82321 2.33325 9.65364 2.40349 9.52862 2.52851C9.40359 2.65354 9.33335 2.82311 9.33335 2.99992C9.33335 3.17673 9.40359 3.3463 9.52862 3.47132C9.65364 3.59635 9.82321 3.66659 10 3.66659C10.5305 3.66659 11.0392 3.8773 11.4142 4.25237C11.7893 4.62744 12 5.13615 12 5.66658C11.9991 6.01674 11.9062 6.36052 11.7307 6.66353C11.5552 6.96654 11.3033 7.21817 11 7.39325C10.9012 7.45027 10.8186 7.53169 10.7603 7.62975C10.7019 7.7278 10.6697 7.83919 10.6667 7.95325C10.6639 8.06643 10.69 8.17845 10.7425 8.27876C10.7949 8.37906 10.8721 8.46435 10.9667 8.52659L11.2267 8.69992L11.3134 8.74658C12.117 9.12773 12.7949 9.73058 13.2673 10.4841C13.7398 11.2377 13.9871 12.1105 13.98 12.9999C13.98 13.1767 14.0503 13.3463 14.1753 13.4713C14.3003 13.5963 14.4699 13.6666 14.6467 13.6666C14.8235 13.6666 14.9931 13.5963 15.1181 13.4713C15.2431 13.3463 15.3134 13.1767 15.3134 12.9999C15.3188 11.9769 15.0626 10.9694 14.569 10.0733C14.0754 9.17717 13.3609 8.42213 12.4934 7.87992Z" fill="#747474"/>
</svg>
